<svg width="57" height="46" viewBox="0 0 57 46" fill="none" xmlns="http://www.w3.org/2000/svg">
<g opacity="0.7">
<path d="M12.0011 16.2854C16.3301 16.2854 19.8385 13.3232 19.8385 9.66825C19.8385 6.01328 16.3301 3.05283 12.0011 3.05283C7.6721 3.05283 4.16367 6.01501 4.16367 9.66999C4.16367 13.325 7.6721 16.2871 12.0011 16.2871V16.2854Z" fill="white"/>
<path d="M40.7211 8.32713C40.8014 3.86374 36.5809 0.190503 31.2944 0.122724C26.008 0.0549449 21.6573 3.61829 21.5771 8.08168C21.4968 12.5451 25.7172 16.2183 31.0037 16.2861C36.2902 16.3539 40.6408 12.7905 40.7211 8.32713Z" fill="white"/>
<path d="M36.6268 17.8991H6.88114C3.08068 17.8991 0 20.5018 0 23.7106V39.3983C0 42.6071 3.08068 45.2081 6.88114 45.2081H36.6268C40.4272 45.2081 43.5079 42.6071 43.5079 39.3983V26.1171H9.24821C8.48729 26.1171 7.87239 25.598 7.87239 24.9555C7.87239 24.3131 8.48935 23.7939 9.24821 23.7939H43.5079V23.7123C43.5079 20.5036 40.4272 17.9026 36.6268 17.9026V17.8991ZM9.39833 35.2294C10.7885 35.2294 11.9135 36.1809 11.9135 37.3529C11.9135 38.525 10.7865 39.4765 9.39833 39.4765C8.01018 39.4765 6.8832 38.525 6.8832 37.3529C6.8832 36.1809 8.01018 35.2294 9.39833 35.2294Z" fill="white"/>
<path d="M52.5897 23.0066L46.7204 26.0209C46.4304 26.1702 46.2535 26.4341 46.2535 26.7206V36.385C46.2535 36.6715 46.4304 36.9372 46.7204 37.0848L52.5897 40.099C54.3912 41.0245 56.6986 39.9289 56.6986 38.1474V24.9565C56.6986 23.175 54.3912 22.0811 52.5897 23.0049V23.0066Z" fill="white"/>
</g>
</svg>
