<svg width="40" height="51" viewBox="0 0 40 51" fill="none" xmlns="http://www.w3.org/2000/svg">
<g opacity="0.7" clip-path="url(#clip0_1_1185)">
<path d="M29.572 11.5621C28.7128 11.5621 28.0156 10.8525 28.0156 9.97826V0H0V51H40V11.5621H29.572ZM7.93774 8.39441H20.5447C21.4039 8.39441 22.1012 9.10398 22.1012 9.97826C22.1012 10.8525 21.4039 11.5621 20.5447 11.5621H7.93774C7.0786 11.5621 6.38132 10.8525 6.38132 9.97826C6.38132 9.10398 7.0786 8.39441 7.93774 8.39441ZM24.7471 42.4472H7.93774C7.0786 42.4472 6.38132 41.7376 6.38132 40.8634C6.38132 39.9891 7.0786 39.2795 7.93774 39.2795H24.7471C25.6062 39.2795 26.3035 39.9891 26.3035 40.8634C26.3035 41.7376 25.6062 42.4472 24.7471 42.4472ZM32.0623 31.9938H7.93774C7.0786 31.9938 6.38132 31.2842 6.38132 30.4099C6.38132 29.5357 7.0786 28.8261 7.93774 28.8261H32.0623C32.9214 28.8261 33.6187 29.5357 33.6187 30.4099C33.6187 31.2842 32.9214 31.9938 32.0623 31.9938ZM32.0623 22.0155H7.93774C7.0786 22.0155 6.38132 21.306 6.38132 20.4317C6.38132 19.5574 7.0786 18.8478 7.93774 18.8478H32.0623C32.9214 18.8478 33.6187 19.5574 33.6187 20.4317C33.6187 21.306 32.9214 22.0155 32.0623 22.0155Z" fill="white"/>
<path d="M39.8039 8.39442C39.709 8.20277 39.5829 8.02697 39.4257 7.87808L31.8086 0.66206C31.6078 0.471998 31.3759 0.321532 31.1284 0.210663V8.396H39.8039V8.39442Z" fill="white"/>
</g>
<defs>
<clipPath id="clip0_1_1185">
<rect width="40" height="51" fill="white"/>
</clipPath>
</defs>
</svg>
