<svg width="60" height="55" viewBox="0 0 60 55" fill="none" xmlns="http://www.w3.org/2000/svg">
<g opacity="0.7" clip-path="url(#clip0_1_1209)">
<path d="M0 50.0948C0 51.075 0.794457 51.8645 1.78076 51.8645H12.129V48.3252H1.78301C0.796714 48.3252 0 49.1147 0 50.0948Z" fill="white"/>
<path d="M57.3702 48.3252H20.4437V51.8645H57.3702C58.3565 51.8645 59.1509 51.075 59.1509 50.0948C59.1509 49.1147 58.3565 48.3252 57.3702 48.3252Z" fill="white"/>
<path d="M16.2886 45.1896C15.3046 45.1896 14.5079 45.9814 14.5079 46.9593V53.2281C14.5079 54.206 15.3046 54.9978 16.2886 54.9978C17.2727 54.9978 18.0694 54.206 18.0694 53.2281V46.9593C18.0694 45.9814 17.2727 45.1896 16.2886 45.1896Z" fill="white"/>
<path d="M55.7429 0H3.4103C1.53023 0 0 1.52068 0 3.389V39.6946C0 41.5629 1.53023 43.0836 3.4103 43.0836H55.7429C57.623 43.0836 59.1532 41.5629 59.1532 39.6946V3.389C59.1532 1.52068 57.623 0 55.7429 0ZM29.5755 35.1011C22.0507 35.1011 15.932 29.0184 15.932 21.5407C15.932 14.0629 22.053 7.98018 29.5755 7.98018C37.098 7.98018 43.2189 14.0629 43.2189 21.5407C43.2189 29.0184 37.098 35.1011 29.5755 35.1011Z" fill="white"/>
<path d="M35.5542 20.0133L27.5826 15.357C26.3931 14.6617 24.8922 15.514 24.8922 16.8867V26.1991C24.8922 27.5695 26.3909 28.4218 27.5826 27.7288L35.5542 23.0725C36.7278 22.3862 36.7278 20.6996 35.5542 20.0133Z" fill="white"/>
</g>
<defs>
<clipPath id="clip0_1_1209">
<rect width="59.1509" height="55" fill="white"/>
</clipPath>
</defs>
</svg>
