<svg width="22" height="22" viewBox="0 0 22 22" fill="none" xmlns="http://www.w3.org/2000/svg">
<path d="M1 10.5H21M15 10.5C15 11.7476 14.8965 12.9829 14.6955 14.1355C14.4945 15.2881 14.1999 16.3354 13.8284 17.2175C13.457 18.0997 13.016 18.7994 12.5307 19.2769C12.0454 19.7543 11.5253 20 11 20C10.4747 20 9.95457 19.7543 9.46927 19.2769C8.98396 18.7994 8.54301 18.0997 8.17157 17.2175C7.80014 16.3354 7.5055 15.2881 7.30448 14.1355C7.10346 12.9829 7 11.7476 7 10.5C7 9.25244 7.10346 8.0171 7.30448 6.86451C7.5055 5.71191 7.80014 4.66464 8.17157 3.78248C8.54301 2.90033 8.98396 2.20056 9.46927 1.72314C9.95457 1.24572 10.4747 1 11 1C11.5253 1 12.0454 1.24573 12.5307 1.72314C13.016 2.20056 13.457 2.90033 13.8284 3.78249C14.1999 4.66464 14.4945 5.71192 14.6955 6.86451C14.8965 8.0171 15 9.25244 15 10.5Z" stroke="white" stroke-linecap="round"/>
<path d="M21 11C21 12.3132 20.7413 13.6136 20.2388 14.8268C19.7362 16.0401 18.9997 17.1425 18.0711 18.0711C17.1425 18.9997 16.0401 19.7362 14.8268 20.2388C13.6136 20.7413 12.3132 21 11 21C9.68678 21 8.38642 20.7413 7.17317 20.2388C5.95991 19.7362 4.85752 18.9997 3.92893 18.0711C3.00035 17.1425 2.26375 16.0401 1.7612 14.8268C1.25866 13.6136 1 12.3132 1 11C1 9.68678 1.25866 8.38642 1.76121 7.17316C2.26375 5.95991 3.00035 4.85752 3.92893 3.92893C4.85752 3.00035 5.95991 2.26375 7.17317 1.7612C8.38642 1.25866 9.68678 1 11 1C12.3132 1 13.6136 1.25866 14.8268 1.76121C16.0401 2.26375 17.1425 3.00035 18.0711 3.92893C18.9997 4.85752 19.7362 5.95991 20.2388 7.17317C20.7413 8.38642 21 9.68678 21 11L21 11Z" stroke="white"/>
</svg>
